<mxfile host="app.diagrams.net" modified="2020-10-13T07:20:58.869Z" agent="5.0 (Windows NT 10.0; Win64; x64) AppleWebKit/537.36 (KHTML, like Gecko) Chrome/84.0.4147.105 Safari/537.36" etag="HbOOFA4B-lHwh0A-6Bu2" version="13.7.9" type="github">
  <diagram id="0-X2YlRZ_bXSOWf-01DC" name="Page-1">
    <mxGraphModel dx="1080" dy="732" grid="1" gridSize="10" guides="1" tooltips="1" connect="1" arrows="1" fold="1" page="1" pageScale="1" pageWidth="827" pageHeight="1169" math="0" shadow="0">
      <root>
        <mxCell id="0" />
        <mxCell id="1" parent="0" />
        <mxCell id="9NbLjylKJKqMQ0mpTwAn-1" value="" style="ellipse;whiteSpace=wrap;html=1;" vertex="1" parent="1">
          <mxGeometry x="370" y="280" width="120" height="80" as="geometry" />
        </mxCell>
        <mxCell id="9NbLjylKJKqMQ0mpTwAn-2" value="" style="shape=curlyBracket;whiteSpace=wrap;html=1;rounded=1;" vertex="1" parent="1">
          <mxGeometry x="310" y="240" width="20" height="120" as="geometry" />
        </mxCell>
        <mxCell id="9NbLjylKJKqMQ0mpTwAn-3" value="" style="line;strokeWidth=2;html=1;" vertex="1" parent="1">
          <mxGeometry x="360" y="245" width="160" height="10" as="geometry" />
        </mxCell>
        <mxCell id="9NbLjylKJKqMQ0mpTwAn-4" value="" style="shape=image;html=1;verticalLabelPosition=bottom;verticalAlign=top;imageAspect=1;aspect=fixed;image=img/clipart/Gear_128x128.png" vertex="1" parent="1">
          <mxGeometry x="190" y="420" width="52" height="61" as="geometry" />
        </mxCell>
        <mxCell id="9NbLjylKJKqMQ0mpTwAn-5" value="" style="whiteSpace=wrap;html=1;shape=mxgraph.basic.isocube;isoAngle=15;" vertex="1" parent="1">
          <mxGeometry x="210" y="510" width="100" height="100" as="geometry" />
        </mxCell>
        <mxCell id="9NbLjylKJKqMQ0mpTwAn-6" value="" style="whiteSpace=wrap;html=1;shape=mxgraph.basic.loud_callout" vertex="1" parent="1">
          <mxGeometry x="364" y="490" width="100" height="60" as="geometry" />
        </mxCell>
      </root>
    </mxGraphModel>
  </diagram>
</mxfile>
